<svg id="Layer_1" data-name="Layer 1" xmlns="http://www.w3.org/2000/svg" viewBox="0 0 852.75 191.5"><defs><style>.cls-1{fill:#e64c3c;}.cls-2{fill:#f7eded;}.cls-3{fill:#f0efef;}</style></defs><title>atozserver-logo</title><circle class="cls-1" cx="96.5" cy="97" r="92.62"/><path class="cls-2" d="M120.5,56.23l-9,13.07,12.25,36.35H86.56l-7.21,10.49,46.73.32,6.2,17.67a20.64,20.64,0,0,0,19.47,13.81h0Zm-55.68,72.7,44.41-64.66.4-.58,8.79-12.8a.6.6,0,0,0,.07-.55l-1-3.09h-.37l-41.43-.44A11.82,11.82,0,0,0,63.73,58.63v.13l32.64.31a1.49,1.49,0,0,1,1.2,2.34L43.44,139a1,1,0,0,0-.19.59v8.4H105a11.26,11.26,0,0,0,11.25-11.26h0l-53.43.13a1.88,1.88,0,0,1-1.53-3Z"/><path class="cls-3" d="M242.09,138.27q-10.62,0-16.72-5.07t-6.11-14.47a17.84,17.84,0,0,1,3.17-10.83,23.11,23.11,0,0,1,8.72-7,47,47,0,0,1,13-3.88,113.15,113.15,0,0,1,16.18-1.31V90.93a8.69,8.69,0,0,0-2.86-6.58q-2.85-2.68-9.83-2.69a35.55,35.55,0,0,0-9.19,1.06,43.26,43.26,0,0,0-6.34,2.13,10,10,0,0,1-3.49,1.07,4,4,0,0,1-2.7-1.44,19.55,19.55,0,0,1-2.53-3.14,5.43,5.43,0,0,1-1.11-2.69c0-1.17,1.26-2.34,3.8-3.51a45.61,45.61,0,0,1,9.67-2.94A63.23,63.23,0,0,1,248.28,71q9.51,0,15.77,2.44a19.94,19.94,0,0,1,9.36,6.83A17.79,17.79,0,0,1,276.5,90.8v27.06a67.82,67.82,0,0,0,.47,8.89,51.52,51.52,0,0,0,.95,5.2,12.53,12.53,0,0,1,.48,2.32c0,.66-.45,1.21-1.35,1.62a14.18,14.18,0,0,1-3.25,1,31.21,31.21,0,0,1-3.72.5c-1.22.08-2.14.12-2.78.12a3.89,3.89,0,0,1-3.8-2.25,32.1,32.1,0,0,1-1.91-4.89,27.8,27.8,0,0,1-8.08,5.64A26.52,26.52,0,0,1,242.09,138.27Zm4-11a19.51,19.51,0,0,0,8.08-1.63,17.19,17.19,0,0,0,6.19-4.63V105.33c-3.28.09-6.4.29-9.36.63a34.2,34.2,0,0,0-8,1.81,12.85,12.85,0,0,0-5.63,3.82,10.12,10.12,0,0,0-2.06,6.64,8.32,8.32,0,0,0,2.69,6.7C239.77,126.48,242.46,127.25,246.06,127.25Z"/><path class="cls-3" d="M319.3,138.27a26.7,26.7,0,0,1-8.56-1.44,14.64,14.64,0,0,1-7.05-5q-2.79-3.57-2.78-10.08V82.53h-4.12q-3.65,0-3.65-4.51V76.4q0-4.52,3.65-4.51h4.12L303,59.11q.48-3.13,6-3.13h2.53q5.72,0,5.71,3.13V71.89h9.2q3.48,0,3.48,4.51V78q0,4.52-3.48,4.51h-9.2v38.21q0,4.13,1.51,5.51a5.74,5.74,0,0,0,4,1.38,12.35,12.35,0,0,0,3.09-.32,8.44,8.44,0,0,1,2-.31,2.45,2.45,0,0,1,2,1.44,10.87,10.87,0,0,1,1.26,3.13,12,12,0,0,1,.4,2.32c0,1.17-.71,2.07-2.14,2.69a18.38,18.38,0,0,1-5.07,1.32A40.42,40.42,0,0,1,319.3,138.27Z"/><path class="cls-3" d="M371.62,138.27q-15.06,0-23.07-8.64t-8-24.8q0-16.27,7.92-25T371.62,71q15.22,0,23.07,8.71t7.85,25.11q0,16.29-7.85,24.86T371.62,138.27Zm-.16-10.64q7.29,0,10.78-5.51t3.49-17.42q0-12-3.49-17.53t-10.78-5.51q-7.29,0-10.62,5.45t-3.33,17.59q0,11.91,3.33,17.42T371.46,127.63Z"/><path class="cls-3" d="M416.17,137.4q-.8,0-1.59-1.26a12.91,12.91,0,0,1-1.34-2.94,10,10,0,0,1-.56-3.07,3.85,3.85,0,0,1,.32-1.5l33.29-46.1h-27.9q-3.5,0-3.49-4.51V76.4q0-4.52,3.49-4.51h44.87c.42,0,.87.44,1.35,1.31a18.11,18.11,0,0,1,1.26,3.07,10.26,10.26,0,0,1,.56,3,3.32,3.32,0,0,1-.32,1.5l-33.13,46h30.44q3.48,0,3.48,4.51v1.63c0,3-1.16,4.51-3.48,4.51Z"/><path class="cls-3" d="M498,138.52a44.09,44.09,0,0,1-10.7-1.25,29.54,29.54,0,0,1-8-3.07q-3-1.81-3-3.57a6.15,6.15,0,0,1,1.11-2.94A14.78,14.78,0,0,1,480,124.5a4.26,4.26,0,0,1,2.62-1.38,6.92,6.92,0,0,1,2.54,1.12,27.83,27.83,0,0,0,4.83,2.2,20.22,20.22,0,0,0,6.9,1.06c3.27,0,5.84-.64,7.69-1.94a6.76,6.76,0,0,0,2.77-6,8.17,8.17,0,0,0-3.57-6.89,43.81,43.81,0,0,0-9.43-5,44.29,44.29,0,0,1-8.48-4.13,17.9,17.9,0,0,1-5.79-5.76,15.94,15.94,0,0,1-2.06-8.4A15.8,15.8,0,0,1,484.82,76q6.81-5,17.28-5a52.66,52.66,0,0,1,8.4.69,26.05,26.05,0,0,1,7.14,2.07c1.9.92,2.85,2,2.85,3.13a7.61,7.61,0,0,1-.87,2.88,15.16,15.16,0,0,1-2.14,3.38,3.41,3.41,0,0,1-2.38,1.5,13.36,13.36,0,0,1-3.81-1.44,17.18,17.18,0,0,0-7.45-1.44A13.05,13.05,0,0,0,497,83.47a5.46,5.46,0,0,0-2.78,5,7.7,7.7,0,0,0,3.57,6.7,52.4,52.4,0,0,0,8.32,4.57,49.62,49.62,0,0,1,9.2,4.58,18.33,18.33,0,0,1,6,6.07,17,17,0,0,1,2.06,8.77A16.23,16.23,0,0,1,520,129.32a22.18,22.18,0,0,1-8.95,6.76A32.65,32.65,0,0,1,498,138.52Z"/><path class="cls-3" d="M568.69,138.27q-17.28,0-25.61-8.26t-8.32-24.93q0-11.65,3.72-19.16a24.53,24.53,0,0,1,10.86-11.21q7.14-3.7,17.13-3.7,14.41,0,21.4,8.52t7,24.55a4.09,4.09,0,0,1-1.11,2.25,14,14,0,0,1-2.54,2.45,4.44,4.44,0,0,1-2.54,1.06H551.88q.79,9.39,4.76,13.59t12.21,4.2a27.81,27.81,0,0,0,9.11-1.26,33.54,33.54,0,0,0,5.63-2.44,7.39,7.39,0,0,1,2.85-1.19,4.11,4.11,0,0,1,2.86,1.44,15.89,15.89,0,0,1,2.45,3.2,6,6,0,0,1,1,2.63q0,1.38-2.07,2.88a20.87,20.87,0,0,1-5.54,2.69,51.26,51.26,0,0,1-7.77,1.94A50.57,50.57,0,0,1,568.69,138.27Zm-17-38.07h26.8q0-9.53-3-14.16t-9.35-4.63q-6.66,0-10.23,4.44T551.72,100.2Z"/><path class="cls-3" d="M619.1,137.65c-4.86,0-7.29-1.05-7.29-3.13v-43a65.85,65.85,0,0,0-.48-8.89,39.33,39.33,0,0,0-1-5.07,10.84,10.84,0,0,1-.47-2.32c0-.67.45-1.21,1.34-1.63a14.35,14.35,0,0,1,3.25-1,29.23,29.23,0,0,1,3.81-.5c1.27-.08,2.22-.13,2.85-.13a3.53,3.53,0,0,1,3.09,1.44,10.76,10.76,0,0,1,1.59,3.45c.37,1.33.71,2.55,1,3.63a29.92,29.92,0,0,1,7-6.89A14.71,14.71,0,0,1,642.41,71a12,12,0,0,1,4.83.81,5.82,5.82,0,0,1,2.62,2.07,4.83,4.83,0,0,1,.79,2.63,15.86,15.86,0,0,1-.39,3.13A13.55,13.55,0,0,1,649.07,83c-.53,1-1.17,1.5-1.9,1.5a7.6,7.6,0,0,1-2.94-.63,13.15,13.15,0,0,0-4.68-.62,10.6,10.6,0,0,0-5.23,1.31,19.37,19.37,0,0,0-4.12,3A9,9,0,0,0,628,90.55v44c0,2.08-2.38,3.13-7.13,3.13Z"/><path class="cls-3" d="M682.36,137.65a15.86,15.86,0,0,1-4.28-.5,3.17,3.17,0,0,1-2.22-1.63L656.52,75.9c-.11-.42-.19-.78-.24-1.07a5.49,5.49,0,0,1-.08-.94q0-2.25,6.82-2.25h3.49a16.13,16.13,0,0,1,4.2.5c1.21.33,1.92.87,2.14,1.63l9.51,34.07c.74,2.67,1.4,5.44,2,8.33s1.08,5.69,1.51,8.45h.95c.42-2.76.9-5.59,1.43-8.52s1.11-5.67,1.74-8.26l9.51-34.07c.21-.76.95-1.3,2.22-1.63a17.75,17.75,0,0,1,4.44-.5h3.17q6.35,0,6.34,2.25a4.64,4.64,0,0,1-.08.94c-.05.29-.13.65-.23,1.07l-19.19,59.62a3.19,3.19,0,0,1-2.3,1.63,16,16,0,0,1-4.2.5Z"/><path class="cls-3" d="M759.41,138.27q-17.28,0-25.61-8.26t-8.32-24.93q0-11.65,3.73-19.16a24.44,24.44,0,0,1,10.86-11.21Q747.2,71,757.19,71q14.43,0,21.4,8.52t7,24.55a4,4,0,0,1-1.11,2.25,14,14,0,0,1-2.54,2.45,4.44,4.44,0,0,1-2.53,1.06H742.6q.79,9.39,4.76,13.59t12.21,4.2a27.72,27.72,0,0,0,9.11-1.26,33.18,33.18,0,0,0,5.63-2.44,7.42,7.42,0,0,1,2.86-1.19,4.09,4.09,0,0,1,2.85,1.44,16.32,16.32,0,0,1,2.46,3.2,6.12,6.12,0,0,1,1,2.63c0,.92-.69,1.88-2.06,2.88a21.11,21.11,0,0,1-5.55,2.69,51.26,51.26,0,0,1-7.77,1.94A50.4,50.4,0,0,1,759.41,138.27Zm-17-38.07h26.79q0-9.53-3-14.16t-9.36-4.63q-6.66,0-10.22,4.44T742.45,100.2Z"/><path class="cls-3" d="M809.83,137.65c-4.87,0-7.3-1.05-7.3-3.13v-43a67.82,67.82,0,0,0-.47-8.89,43.18,43.18,0,0,0-.95-5.07,10.43,10.43,0,0,1-.48-2.32c0-.67.45-1.21,1.35-1.63a14,14,0,0,1,3.25-1,29.08,29.08,0,0,1,3.8-.5c1.27-.08,2.22-.13,2.86-.13A3.56,3.56,0,0,1,815,73.45a11,11,0,0,1,1.58,3.45c.37,1.33.72,2.55,1,3.63a30.11,30.11,0,0,1,7-6.89A14.74,14.74,0,0,1,833.13,71a12.1,12.1,0,0,1,4.84.81,5.85,5.85,0,0,1,2.61,2.07,4.85,4.85,0,0,1,.8,2.63,16,16,0,0,1-.4,3.13A13.16,13.16,0,0,1,839.79,83c-.53,1-1.16,1.5-1.9,1.5a7.63,7.63,0,0,1-2.94-.63,13.13,13.13,0,0,0-4.67-.62A10.64,10.64,0,0,0,825,84.6a19.37,19.37,0,0,0-4.12,3,9,9,0,0,0-2.22,2.94v44c0,2.08-2.37,3.13-7.13,3.13Z"/></svg>